<svg fill="none" xmlns="http://www.w3.org/2000/svg" viewBox="0 0 658 658">
  <path fill="#fff" d="M0 0h658v658H0z"/>
  <path fill-rule="evenodd" clip-rule="evenodd" d="M150.626 200a2 2 0 0 0-2-2h-.945a2 2 0 0 0-2 2v10.009h-4.946v12.01h-5.89a4 4 0 0 0-4 4v7.541a4 4 0 0 0 4 4h24.496a4 4 0 0 0 4-4v-7.541a4 4 0 0 0-4-4h-4.477v-12.01h-4.238V200Zm118.327 8.596-102.297-2.95c-3.278-.095-5.271 3.579-3.404 6.275l3.685 5.323a3.999 3.999 0 0 0 3.707 1.701l98.309-10.349Zm109.603 155.921h-20.478a4 4 0 0 1-4-4v-3.074a4 4 0 0 0-4-4h-39.331a4 4 0 0 0-4 4v3.074a4 4 0 0 1-4 4h-23.303L161.222 261.534v-22.561h-28.257v38.147h20.185l107.326 131.75.454.002L250.323 440H240a4 4 0 0 0-4 4v7h-19a4 4 0 0 0 0 8h48a4 4 0 0 0 4-4v-11c0-.106-.004-.212-.012-.316l16.348-18.611 13.315 31.98a3.999 3.999 0 0 0 3.717 2.463l52.516-.321a4 4 0 0 0 3.655-2.431l13.746-32.233 16.699 19.011c-.008.104-.012.21-.012.316v11a4 4 0 0 0 4 4h48a4 4 0 1 0 0-8h-19v-7a4 4 0 0 0-4-4h-10.323l-10.559-30.986.434-.002L504.85 277.12h20.185v-38.147h-28.257v22.561L378.556 364.517ZM129.297 206.095 27 209.046l98.309 10.348a3.999 3.999 0 0 0 3.707-1.701l3.685-5.323c1.867-2.696-.126-6.369-3.404-6.275ZM507.374 200a2 2 0 0 1 2-2h.945a2 2 0 0 1 2 2v10.009h4.945v12.01h5.89a4 4 0 0 1 4 4v7.541a4 4 0 0 1-4 4h-24.496a4 4 0 0 1-4-4v-7.541a4 4 0 0 1 4-4h4.478v-12.01h4.238V200Zm-118.327 8.596 102.297-2.95c3.278-.095 5.271 3.579 3.404 6.275l-3.685 5.323a4 4 0 0 1-3.708 1.701l-98.308-10.349Zm139.656-2.501L631 209.046l-98.309 10.348a3.999 3.999 0 0 1-3.707-1.701l-3.685-5.323c-1.867-2.696.126-6.369 3.404-6.275Z" fill="#003049"/>
  <rect x="303.389" y="386.288" width="50.515" height="50.515" rx="13" stroke="#fff" stroke-width="6"/>
  <path fill-rule="evenodd" clip-rule="evenodd" d="M328.647 431.325c10.924 0 19.78-8.856 19.78-19.78 0-10.924-8.856-19.78-19.78-19.78-10.924 0-19.78 8.856-19.78 19.78 0 10.924 8.856 19.78 19.78 19.78Zm1.001-28.293a6.76 6.76 0 0 1-6.76 6.76 6.756 6.756 0 0 1-5.745-3.194 12.484 12.484 0 0 0-1.015 4.947c0 6.914 5.605 12.519 12.519 12.519s12.519-5.605 12.519-12.519-5.605-12.519-12.519-12.519c-.104 0-.207.001-.31.004a6.73 6.73 0 0 1 1.311 4.002Z" fill="#fff"/>
</svg>
